HIERARCHY
ROOT hip
{
  OFFSET 0 0 0
  CHANNELS 6 Xposition Yposition Zposition Zrotation Yrotation Xrotation
  JOINT abdomen
  {
    OFFSET 0 20.6881 -0.73152
    CHANNELS 3 Zrotation Xrotation Yrotation
    JOINT chest
    {
      OFFSET 0 11.7043 -0.48768
      CHANNELS 3 Zrotation Xrotation Yrotation
      JOINT neck
      {
        OFFSET 0 22.1894 -2.19456
        CHANNELS 3 Zrotation Xrotation Yrotation
        JOINT head
        {
          OFFSET -0.24384 7.07133 1.2192
          CHANNELS 3 Zrotation Xrotation Yrotation
          JOINT leftEye
          {
            OFFSET 4.14528 8.04674 8.04672
            CHANNELS 3 Zrotation Xrotation Yrotation
            End Site
            {
              OFFSET 1 0 0
            }
          }
          JOINT rightEye
          {
            OFFSET -3.6576 8.04674 8.04672
            CHANNELS 3 Zrotation Xrotation Yrotation
            End Site
            {
              OFFSET 1 0 0
            }
          }
        }
      }
      JOINT rCollar
      {
        OFFSET -2.68224 19.2634 -4.8768
        CHANNELS 3 Zrotation Xrotation Yrotation
        JOINT rShldr
        {
          OFFSET -8.77824 -1.95073 1.46304
          CHANNELS 3 Zrotation Xrotation Yrotation
          JOINT rForeArm
          {
            OFFSET -28.1742 -1.7115 0.48768
            CHANNELS 3 Zrotation Xrotation Yrotation
            JOINT rHand
            {
              OFFSET -22.5879 0.773209 7.07136
              CHANNELS 3 Zrotation Xrotation Yrotation
              JOINT rThumb1
              {
                OFFSET -1.2192 -0.487915 3.41376
                CHANNELS 3 Zrotation Xrotation Yrotation
                JOINT rThumb2
                {
                  OFFSET -3.37035 -0.52449 3.41376
                  CHANNELS 3 Zrotation Xrotation Yrotation
                  End Site
                  {
                    OFFSET -1.78271 -1.18214 1.43049
                  }
                }
              }
              JOINT rIndex1
              {
                OFFSET -7.75947 0.938293 5.60832
                CHANNELS 3 Zrotation Xrotation Yrotation
                JOINT rIndex2
                {
                  OFFSET -2.54057 -0.884171 1.56538
                  CHANNELS 3 Zrotation Xrotation Yrotation
                  End Site
                  {
                    OFFSET -1.62519 -0.234802 1.16502
                  }
                }
              }
              JOINT rMid1
              {
                OFFSET -8.24714 1.18213 3.41376
                CHANNELS 3 Zrotation Xrotation Yrotation
                JOINT rMid2
                {
                  OFFSET -3.10165 -0.590103 1.0647
                  CHANNELS 3 Zrotation Xrotation Yrotation
                  End Site
                  {
                    OFFSET -2.48547 -0.328903 0.83742
                  }
                }
              }
              JOINT rRing1
              {
                OFFSET -8.82822 0.546677 1.51678
                CHANNELS 3 Zrotation Xrotation Yrotation
                JOINT rRing2
                {
                  OFFSET -2.60934 -0.819778 -0.0198488
                  CHANNELS 3 Zrotation Xrotation Yrotation
                  End Site
                  {
                    OFFSET -2.33842 -0.294052 0.168128
                  }
                }
              }
              JOINT rPinky1
              {
                OFFSET -8.27202 -0.0477905 -0.4584
                CHANNELS 3 Zrotation Xrotation Yrotation
                JOINT rPinky2
                {
                  OFFSET -1.82734 -0.647385 -0.700984
                  CHANNELS 3 Zrotation Xrotation Yrotation
                  End Site
                  {
                    OFFSET -1.69225 -0.51767 -0.607171
                  }
                }
              }
            }
          }
        }
      }
      JOINT lCollar
      {
        OFFSET 2.68224 19.2634 -4.8768
        CHANNELS 3 Zrotation Xrotation Yrotation
        JOINT lShldr
        {
          OFFSET 8.77824 -1.95073 1.46304
          CHANNELS 3 Zrotation Xrotation Yrotation
          JOINT lForeArm
          {
            OFFSET 28.1742 -1.7115 0.48768
            CHANNELS 3 Zrotation Xrotation Yrotation
            JOINT lHand
            {
              OFFSET 22.5879 0.773209 7.07136
              CHANNELS 3 Zrotation Xrotation Yrotation
              JOINT lThumb1
              {
                OFFSET 1.2192 -0.487915 3.41376
                CHANNELS 3 Zrotation Xrotation Yrotation
                JOINT lThumb2
                {
                  OFFSET 3.37035 -0.52449 3.41376
                  CHANNELS 3 Zrotation Xrotation Yrotation
                  End Site
                  {
                    OFFSET 1.78271 -1.18214 1.43049
                  }
                }
              }
              JOINT lIndex1
              {
                OFFSET 7.75947 0.938293 5.60832
                CHANNELS 3 Zrotation Xrotation Yrotation
                JOINT lIndex2
                {
                  OFFSET 2.54057 -0.884171 1.56538
                  CHANNELS 3 Zrotation Xrotation Yrotation
                  End Site
                  {
                    OFFSET 1.62519 -0.234802 1.16502
                  }
                }
              }
              JOINT lMid1
              {
                OFFSET 8.24714 1.18213 3.41376
                CHANNELS 3 Zrotation Xrotation Yrotation
                JOINT lMid2
                {
                  OFFSET 3.10165 -0.590103 1.0647
                  CHANNELS 3 Zrotation Xrotation Yrotation
                  End Site
                  {
                    OFFSET 2.48547 -0.328903 0.83742
                  }
                }
              }
              JOINT lRing1
              {
                OFFSET 8.82822 0.546677 1.51678
                CHANNELS 3 Zrotation Xrotation Yrotation
                JOINT lRing2
                {
                  OFFSET 2.60934 -0.819778 -0.0198488
                  CHANNELS 3 Zrotation Xrotation Yrotation
                  End Site
                  {
                    OFFSET 2.33842 -0.294052 0.168128
                  }
                }
              }
              JOINT lPinky1
              {
                OFFSET 8.27202 -0.0477905 -0.4584
                CHANNELS 3 Zrotation Xrotation Yrotation
                JOINT lPinky2
                {
                  OFFSET 1.82734 -0.647385 -0.700984
                  CHANNELS 3 Zrotation Xrotation Yrotation
                  End Site
                  {
                    OFFSET 1.69225 -0.51767 -0.607171
                  }
                }
              }
            }
          }
        }
      }
    }
  }
  JOINT rButtock
  {
    OFFSET -8.77824 4.35084 1.2192
    CHANNELS 3 Zrotation Xrotation Yrotation
    JOINT rThigh
    {
      OFFSET 0 -1.70687 -2.19456
      CHANNELS 3 Zrotation Xrotation Yrotation
      JOINT rShin
      {
        OFFSET 0 -36.8199 0.73152
        CHANNELS 3 Zrotation Xrotation Yrotation
        JOINT rFoot
        {
          OFFSET 0.73152 -45.1104 -5.12064
          CHANNELS 3 Zrotation Xrotation Yrotation
          End Site
          {
            OFFSET -1.1221 -3.69964 12.103
          }
        }
      }
    }
  }
  JOINT lButtock
  {
    OFFSET 8.77824 4.35084 1.2192
    CHANNELS 3 Zrotation Xrotation Yrotation
    JOINT lThigh
    {
      OFFSET 0 -1.70687 -2.19456
      CHANNELS 3 Zrotation Xrotation Yrotation
      JOINT lShin
      {
        OFFSET 0 -36.8199 0.73152
        CHANNELS 3 Zrotation Xrotation Yrotation
        JOINT lFoot
        {
          OFFSET -0.73152 -45.1104 -5.12064
          CHANNELS 3 Zrotation Xrotation Yrotation
          End Site
          {
            OFFSET 1.1221 -3.69964 12.103
          }
        }
      }
    }
  }
}
MOTION
Frames:	5
Frame Time:	0.00833333
54.8739 85.1388 124.731 0.0 0.0 0.0 0.41059 -0.00336424 0.0117806 0.113459 -0.0053952 0.0196593 -1.16257e-15 -7.95139e-16 -5.59082e-17 -3.45078e-15 3.18055e-15 -1.55301e-16 -0.0 0.0 0.0 -0.0 0.0 0.0 -5.48001e-16 0.0 9.93923e-17 -9.57195e-15 -8.07563e-17 3.97569e-16 -2.12352e-13 6.59965e-14 -9.54166e-15 -2.44006e-12 -5.44918e-14 -1.36764e-13 -5.75657e-12 2.57458e-14 -2.95792e-13 -9.95076e-12 4.77083e-14 -5.23201e-13 -5.75243e-12 2.66371e-14 -3.11694e-13 7.73091 5.47488 0.417314 -5.75685e-12 2.59414e-14 -2.95792e-13 2.90554 0.965183 0.102902 -5.75283e-12 2.59414e-14 -3.00562e-13 10.2786 0.731801 0.0259123 -5.75919e-12 2.82274e-14 -2.95792e-13 2.22167 -0.733487 -0.20892 -5.45352e-16 3.88251e-19 -9.93923e-17 -1.50866e-14 -1.80149e-16 -1.59028e-15 -2.126e-13 -6.32135e-14 -2.22639e-14 -2.43763e-12 6.53256e-14 -1.17681e-13 -5.74883e-12 2.97572e-15 -2.95792e-13 -9.92015e-12 0.0 -5.10479e-13 -5.75362e-12 2.38542e-15 -2.8625e-13 -7.73091 5.47488 -0.417314 -5.74841e-12 3.08116e-15 -2.95792e-13 -2.90554 0.965183 -0.102902 -5.75916e-12 3.57812e-15 -2.97382e-13 -10.2786 0.731801 -0.0259123 -5.74448e-12 3.97569e-15 -3.05333e-13 -2.22167 -0.733487 0.20892 -2.03217e-16 0.0 -3.88251e-19 0.770605 -4.17183 -0.0656816 -0.00265488 2.00555 -0.0182703 -0.46183 2.16687 0.096101 2.03217e-16 0.0 3.88251e-19 -0.143234 -2.55995 0.0260685 0.0071632 -0.91409 0.0621718 0.453773 3.47457 -0.121225
55.5912 83.5215 119.332 -179.914 -2.9064 -152.03 -0.846903 -9.31901 -0.459195 0.873238 3.25867 -0.303989 -1.2503 3.82005 0.0246892 2.80441 -5.29889 0.395993 -0.0 0.0 0.0 -0.0 0.0 0.0 -1.31996e-14 -1.17046e-13 -1.75843e-14 22.7965 0.510007 -0.922444 -3.25711 -1.32935 5.23911 0.0104285 2.26553 0.317501 1.8732e-10 -6.2365e-10 1.22112e-09 3.3272e-10 -1.08132e-09 2.10844e-09 1.87323e-10 -6.2365e-10 1.2211e-09 7.73091 5.47488 0.417314 1.87319e-10 -6.2365e-10 1.22111e-09 2.90554 0.965183 0.102902 1.87324e-10 -6.23649e-10 1.22111e-09 10.2786 0.731801 0.0259123 1.87316e-10 -6.23647e-10 1.22111e-09 2.22167 -0.733487 -0.20892 -1.3197e-14 -1.17047e-13 -1.77672e-14 -21.1276 3.83809 -0.28772 2.17257 -0.769354 -3.59308 -0.0276434 3.69043 -0.51478 8.76047e-10 -1.34168e-10 -9.90817e-10 1.50203e-09 -2.36855e-10 -1.72126e-09 8.76044e-10 -1.34167e-10 -9.90806e-10 -7.73091 5.47488 -0.417314 8.76049e-10 -1.34166e-10 -9.90815e-10 -2.90554 0.965183 -0.102902 8.76038e-10 -1.34166e-10 -9.90816e-10 -10.2786 0.731801 -0.0259123 8.7605e-10 -1.34165e-10 -9.90822e-10 -2.22167 -0.733487 0.20892 -2.03217e-16 0.0 -3.88251e-19 0.481574 -11.0274 2.14624 0.00212852 3.66743 0.0355214 -0.670986 -2.67882 -2.51366 2.03217e-16 0.0 3.88251e-19 0.884959 -9.52094 -2.59288 0.00522411 1.0321 0.0255046 0.506694 1.57682 1.30687
55.6149 83.5201 119.353 -179.808 -2.8571 -151.938 -2.35145 -19.1645 -0.99795 1.72491 6.70497 -0.649903 -2.58333 7.846 0.0529709 5.85921 -10.8695 0.828188 -0.0 0.0 0.0 -0.0 0.0 0.0 -2.69479e-14 -2.48778e-13 -3.62565e-14 46.905 1.04751 -1.90173 -6.43582 -2.69677 10.7844 -0.00593121 4.66047 0.654824 3.85086e-10 -1.31485e-09 2.60646e-09 6.84687e-10 -2.27985e-09 4.50069e-09 3.85088e-10 -1.31486e-09 2.60645e-09 7.73091 5.47488 0.417314 3.85084e-10 -1.31485e-09 2.60646e-09 2.90554 0.965183 0.102902 3.85091e-10 -1.31485e-09 2.60646e-09 10.2786 0.731801 0.0259123 3.85081e-10 -1.31485e-09 2.60646e-09 2.22167 -0.733487 -0.20892 -2.69431e-14 -2.48781e-13 -3.64211e-14 -43.4261 7.91093 -0.591798 4.36676 -1.57364 -7.39717 0.0157858 7.58083 -1.06474 1.86439e-09 -2.97583e-10 -2.12369e-09 3.19644e-09 -5.24965e-10 -3.68915e-09 1.86438e-09 -2.97579e-10 -2.12368e-09 -7.73091 5.47488 -0.417314 1.86439e-09 -2.97579e-10 -2.12369e-09 -2.90554 0.965183 -0.102902 1.86438e-09 -2.97579e-10 -2.12369e-09 -10.2786 0.731801 -0.0259123 1.86439e-09 -2.97578e-10 -2.12369e-09 -2.22167 -0.733487 0.20892 -2.03217e-16 0.0 -3.88251e-19 0.781772 -18.2364 4.64582 0.00377852 5.42477 0.0926942 -1.37657 -7.7755 -5.32299 2.03217e-16 0.0 3.88251e-19 1.25427 -16.8275 -5.521 0.00582154 3.09055 -0.0132858 0.665184 -0.427272 2.81213
55.6231 83.5208 119.34 -179.766 -2.8869 -152.003 -3.87252 -27.9423 -1.56551 2.50479 9.78557 -0.963836 -3.76094 11.4601 0.0754065 8.64038 -15.8936 1.22993 -0.0 0.0 0.0 -0.0 0.0 0.0 -3.85027e-14 -3.51139e-13 -5.29517e-14 68.4387 1.52843 -2.76821 -9.05078 -3.85488 15.7496 -0.0444902 6.79576 0.958493 5.73472e-10 -1.871e-09 3.66394e-09 1.01806e-09 -3.24405e-09 6.32637e-09 5.73473e-10 -1.871e-09 3.66393e-09 7.73091 5.47488 0.417314 5.73469e-10 -1.871e-09 3.66393e-09 2.90554 0.965183 0.102902 5.73478e-10 -1.871e-09 3.66394e-09 10.2786 0.731801 0.0259123 5.73466e-10 -1.871e-09 3.66394e-09 2.22167 -0.733487 -0.20892 -3.85001e-14 -3.51143e-13 -5.31027e-14 -63.2653 11.5131 -0.878911 6.22992 -2.27179 -10.7868 0.119195 11.0677 -1.57035 2.63964e-09 -4.02511e-10 -2.97186e-09 4.52594e-09 -7.10566e-10 -5.16277e-09 2.63964e-09 -4.02505e-10 -2.97185e-09 -7.73091 5.47488 -0.417314 2.63964e-09 -4.02505e-10 -2.97185e-09 -2.90554 0.965183 -0.102902 2.63963e-09 -4.02505e-10 -2.97185e-09 -10.2786 0.731801 -0.0259123 2.63964e-09 -4.02504e-10 -2.97186e-09 -2.22167 -0.733487 0.20892 -2.03217e-16 0.0 -3.88251e-19 1.62827 -24.5941 7.09756 0.00227124 6.99119 0.143934 -2.43356 -12.2639 -7.90633 2.03217e-16 0.0 3.88251e-19 0.891386 -23.2461 -8.41064 0.00882858 4.92448 -0.0480035 0.896117 -2.21162 4.16424
55.6316 83.5188 119.343 -179.727 -2.8916 -151.989 -5.06296 -34.0585 -2.05254 3.02571 11.9531 -1.18587 -4.54174 14.0448 0.0817436 10.5748 -19.554 1.51631 -0.0 0.0 0.0 -0.0 0.0 0.0 -4.45734e-14 -3.80075e-13 -6.47044e-14 83.5002 1.86945 -3.35182 -10.7598 -4.61607 19.2342 -0.0848865 8.28272 1.17232 7.38409e-10 -2.0895e-09 3.90176e-09 1.30496e-09 -3.62245e-09 6.73565e-09 7.3841e-10 -2.0895e-09 3.90175e-09 7.73091 5.47488 0.417314 7.38405e-10 -2.0895e-09 3.90175e-09 2.90554 0.965183 0.102902 7.38414e-10 -2.0895e-09 3.90176e-09 10.2786 0.731801 0.0259123 7.38401e-10 -2.0895e-09 3.90176e-09 2.22167 -0.733487 -0.20892 -4.45845e-14 -3.80078e-13 -6.48535e-14 -77.0378 13.9396 -1.10886 7.46894 -2.73944 -13.1332 0.230579 13.549 -1.94086 2.88218e-09 -3.61222e-10 -3.10826e-09 4.94317e-09 -6.39893e-10 -5.40071e-09 2.88218e-09 -3.61216e-10 -3.10825e-09 -7.73091 5.47488 -0.417314 2.88218e-09 -3.61216e-10 -3.10826e-09 -2.90554 0.965183 -0.102902 2.88217e-09 -3.61216e-10 -3.10826e-09 -10.2786 0.731801 -0.0259123 2.88218e-09 -3.61214e-10 -3.10826e-09 -2.22167 -0.733487 0.20892 -2.03217e-16 0.0 -3.88251e-19 2.56557 -28.9596 8.94961 -0.00043914 8.08033 0.17962 -3.4061 -15.3379 -9.74572 2.03217e-16 0.0 3.88251e-19 0.188001 -27.6268 -10.674 0.0125663 6.19712 -0.0722905 1.10944 -3.45494 5.1281
